<svg xmlns="http://www.w3.org/2000/svg" width="200" height="200" viewBox="0 0 200 200" version="1.1"><path d="M 82.500 25.656 C 52.475 32.059, 28.842 55.949, 22.591 86.215 C 20.078 98.379, 20.426 102.664, 24.469 109.379 C 27.979 115.207, 36.379 124, 38.438 124 C 39.054 124, 40.207 124.900, 41 126 C 41.793 127.100, 43.242 128, 44.221 128 C 45.199 128, 46 128.395, 46 128.879 C 46 129.362, 47.463 130.299, 49.250 130.962 C 51.038 131.625, 53.281 132.579, 54.236 133.083 C 55.191 133.588, 56.852 134, 57.927 134 C 59.002 134, 60.160 134.450, 60.500 135 C 60.840 135.550, 62.640 136, 64.500 136 C 66.360 136, 68.125 136.394, 68.423 136.875 C 68.919 137.678, 73.058 138.353, 85 139.577 L 89.500 140.039 85.703 138.621 C 80.779 136.782, 75.342 133.145, 71.164 128.894 C 51.764 109.155, 59.079 76.209, 85.191 65.720 C 89.894 63.831, 93.125 63.525, 113.500 63.044 L 136.500 62.500 136.772 43.250 L 137.043 24 113.272 24.082 C 96.257 24.140, 87.510 24.587, 82.500 25.656" stroke="none" fill="#2c2a2b" fill-rule="evenodd"/><path d="M 86.813 24.683 C 87.534 24.972, 88.397 24.936, 88.729 24.604 C 89.061 24.272, 88.471 24.036, 87.417 24.079 C 86.252 24.127, 86.015 24.364, 86.813 24.683 M 136.772 43.250 L 136.500 62.500 115 63.030 L 93.500 63.560 115.250 63.780 L 137 64 137 86.525 C 137 106.226, 136.758 109.739, 135.067 114.550 C 129.563 130.209, 115.292 140.332, 99 140.134 C 85.176 139.965, 69.286 138.272, 68.423 136.875 C 68.125 136.394, 66.360 136, 64.500 136 C 62.640 136, 60.840 135.550, 60.500 135 C 60.160 134.450, 59.002 134, 57.927 134 C 56.852 134, 55.191 133.588, 54.236 133.083 C 53.281 132.579, 51.037 131.625, 49.250 130.962 C 47.462 130.299, 46 129.362, 46 128.879 C 46 128.395, 45.199 128, 44.221 128 C 43.242 128, 41.793 127.100, 41 126 C 40.207 124.900, 39.054 124, 38.438 124 C 36.379 124, 27.979 115.207, 24.469 109.379 L 21 103.618 21 108.149 C 21 115.330, 24.583 127.692, 29.652 138 C 33.649 146.127, 35.709 148.880, 43.912 157.050 C 51.714 164.821, 55.202 167.473, 62.635 171.288 C 109.103 195.133, 164.900 168.662, 175.409 117.785 C 176.720 111.442, 177 102.498, 177 67.042 L 177 24 157.022 24 L 137.043 24 136.772 43.250 M 94.604 84.038 C 88.327 85.917, 83 93.474, 83 100.500 C 83 111.335, 93.707 119.772, 103.955 117.012 C 116.885 113.531, 121.285 98.358, 112.186 88.627 C 107.459 83.571, 101.428 81.997, 94.604 84.038 M 21.079 90.583 C 21.127 91.748, 21.364 91.985, 21.683 91.188 C 21.972 90.466, 21.936 89.603, 21.604 89.271 C 21.272 88.939, 21.036 89.529, 21.079 90.583 M 60.079 97.583 C 60.127 98.748, 60.364 98.985, 60.683 98.188 C 60.972 97.466, 60.936 96.603, 60.604 96.271 C 60.272 95.939, 60.036 96.529, 60.079 97.583 M 60.158 106 C 60.158 107.375, 60.385 107.938, 60.662 107.250 C 60.940 106.563, 60.940 105.438, 60.662 104.750 C 60.385 104.063, 60.158 104.625, 60.158 106" stroke="none" fill="#145378" fill-rule="evenodd"/></svg>